# Made in Blockbench 4.12.5
mtllib tier1.mtl

o foot_1_v1
v 0.02746072321131099 0.625 1.0422476666166958
v 0.11584907085962948 0.625 0.9538593189683772
v 0.02746072321131099 0 1.0422476666166958
v 0.11584907085962948 0 0.9538593189683772
v 0.027460723211311044 0.625 0.8654709713200587
v -0.060927624437007444 0.625 0.9538593189683772
v 0.027460723211311044 0 0.8654709713200587
v -0.060927624437007444 0 0.9538593189683772
vt 0.078125 0.3125
vt 0.109375 0.3125
vt 0.109375 0.15625
vt 0.078125 0.15625
vt 0.109375 0.3125
vt 0.140625 0.3125
vt 0.140625 0.15625
vt 0.109375 0.15625
vt 0.140625 0.3125
vt 0.171875 0.3125
vt 0.171875 0.15625
vt 0.140625 0.15625
vt 0.171875 0.3125
vt 0.203125 0.3125
vt 0.203125 0.15625
vt 0.171875 0.15625
vt 0.71875 0.5625
vt 0.6875 0.5625
vt 0.6875 0.59375
vt 0.71875 0.59375
vt 0.71875 0.5625
vt 0.6875 0.5625
vt 0.6875 0.53125
vt 0.71875 0.53125
vn 0.7071067811865476 0 -0.7071067811865475
vn 0.7071067811865475 0 0.7071067811865476
vn -0.7071067811865476 0 0.7071067811865475
vn -0.7071067811865475 0 -0.7071067811865476
vn 0 1 0
vn 0 -1 0
usemtl m_6a76b8f2-3cb9-9d22-dfc5-f6b92c046537
f 4/4/1 7/3/1 5/2/1 2/1/1
f 3/8/2 4/7/2 2/6/2 1/5/2
f 8/12/3 3/11/3 1/10/3 6/9/3
f 7/16/4 8/15/4 6/14/4 5/13/4
f 6/20/5 1/19/5 2/18/5 5/17/5
f 7/24/6 4/23/6 3/22/6 8/21/6
o foot_1_v2
v 0.07607431441788615 0.75 0.9936340754101205
v 0.16446266206620463 0.75 0.905245727761802
v 0.07607431441788615 0.625 0.9936340754101205
v 0.16446266206620463 0.625 0.905245727761802
v 0.07607431441788615 0.75 0.8168573801134835
v -0.012314033230432286 0.75 0.905245727761802
v 0.07607431441788615 0.625 0.8168573801134835
v -0.012314033230432286 0.625 0.905245727761802
vt 0.75 0.484375
vt 0.78125 0.484375
vt 0.78125 0.453125
vt 0.75 0.453125
vt 0.53125 0.25
vt 0.5625 0.25
vt 0.5625 0.21875
vt 0.53125 0.21875
vt 0.75 0.453125
vt 0.78125 0.453125
vt 0.78125 0.421875
vt 0.75 0.421875
vt 0.5625 0.25
vt 0.59375 0.25
vt 0.59375 0.21875
vt 0.5625 0.21875
vt 0.78125 0.390625
vt 0.75 0.390625
vt 0.75 0.421875
vt 0.78125 0.421875
vt 0.625 0.25
vt 0.59375 0.25
vt 0.59375 0.21875
vt 0.625 0.21875
vn 0.7071067811865476 0 -0.7071067811865475
vn 0.7071067811865475 0 0.7071067811865476
vn -0.7071067811865476 0 0.7071067811865475
vn -0.7071067811865475 0 -0.7071067811865476
vn 0 1 0
vn 0 -1 0
usemtl m_6a76b8f2-3cb9-9d22-dfc5-f6b92c046537
f 12/28/7 15/27/7 13/26/7 10/25/7
f 11/32/8 12/31/8 10/30/8 9/29/8
f 16/36/9 11/35/9 9/34/9 14/33/9
f 15/40/10 16/39/10 14/38/10 13/37/10
f 14/44/11 9/43/11 10/42/11 13/41/11
f 15/48/12 12/47/12 11/46/12 16/45/12
o foot_2_v1
v 0.9674765381021075 0.625 0.11715061364485463
v 1.055864885750426 0.625 0.02876226599653625
v 0.9674765381021075 0 0.11715061364485463
v 1.055864885750426 0 0.02876226599653625
v 0.9674765381021075 0.625 -0.05962608165178224
v 0.879088190453789 0.625 0.028762265996536196
v 0.9674765381021075 0 -0.05962608165178224
v 0.879088190453789 0 0.028762265996536196
vt 0.203125 0.3125
vt 0.234375 0.3125
vt 0.234375 0.15625
vt 0.203125 0.15625
vt 0.234375 0.3125
vt 0.265625 0.3125
vt 0.265625 0.15625
vt 0.234375 0.15625
vt 0.265625 0.3125
vt 0.296875 0.3125
vt 0.296875 0.15625
vt 0.265625 0.15625
vt 0.296875 0.3125
vt 0.328125 0.3125
vt 0.328125 0.15625
vt 0.296875 0.15625
vt 0.78125 0.359375
vt 0.75 0.359375
vt 0.75 0.390625
vt 0.78125 0.390625
vt 0.65625 0.25
vt 0.625 0.25
vt 0.625 0.21875
vt 0.65625 0.21875
vn 0.7071067811865476 0 -0.7071067811865475
vn 0.7071067811865475 0 0.7071067811865476
vn -0.7071067811865476 0 0.7071067811865475
vn -0.7071067811865475 0 -0.7071067811865476
vn 0 1 0
vn 0 -1 0
usemtl m_6a76b8f2-3cb9-9d22-dfc5-f6b92c046537
f 20/52/13 23/51/13 21/50/13 18/49/13
f 19/56/14 20/55/14 18/54/14 17/53/14
f 24/60/15 19/59/15 17/58/15 22/57/15
f 23/64/16 24/63/16 22/62/16 21/61/16
f 22/68/17 17/67/17 18/66/17 21/65/17
f 23/72/18 20/71/18 19/70/18 24/69/18
o foot_2_v2
v 0.9232823642779482 0.75 0.16134478746901387
v 1.011670711926267 0.75 0.07295643982069538
v 0.9232823642779482 0.625 0.16134478746901387
v 1.011670711926267 0.625 0.07295643982069538
v 0.9232823642779482 0.75 -0.015431907827623104
v 0.8348940166296299 0.75 0.07295643982069544
v 0.9232823642779482 0.625 -0.015431907827623104
v 0.8348940166296299 0.625 0.07295643982069544
vt 0.65625 0.25
vt 0.6875 0.25
vt 0.6875 0.21875
vt 0.65625 0.21875
vt 0.734375 0.25
vt 0.765625 0.25
vt 0.765625 0.21875
vt 0.734375 0.21875
vt 0 0.234375
vt 0.03125 0.234375
vt 0.03125 0.203125
vt 0 0.203125
vt 0.765625 1
vt 0.796875 1
vt 0.796875 0.96875
vt 0.765625 0.96875
vt 0.0625 0.203125
vt 0.03125 0.203125
vt 0.03125 0.234375
vt 0.0625 0.234375
vt 0.796875 0.96875
vt 0.765625 0.96875
vt 0.765625 0.9375
vt 0.796875 0.9375
vn 0.7071067811865476 0 -0.7071067811865475
vn 0.7071067811865475 0 0.7071067811865476
vn -0.7071067811865476 0 0.7071067811865475
vn -0.7071067811865475 0 -0.7071067811865476
vn 0 1 0
vn 0 -1 0
usemtl m_6a76b8f2-3cb9-9d22-dfc5-f6b92c046537
f 28/76/19 31/75/19 29/74/19 26/73/19
f 27/80/20 28/79/20 26/78/20 25/77/20
f 32/84/21 27/83/21 25/82/21 30/81/21
f 31/88/22 32/87/22 30/86/22 29/85/22
f 30/92/23 25/91/23 26/90/23 29/89/23
f 31/96/24 28/95/24 27/94/24 32/93/24
o foot_3_v2
v 1.057920050598278 0.625 0.9481010401637551
v 0.9657603834970124 0.625 0.8636522642117975
v 1.057920050598278 0 0.9481010401637551
v 0.9657603834970124 0 0.8636522642117975
v 0.8813116075450549 0.625 0.9558119313130631
v 0.9734712746463204 0.625 1.0402607072650205
v 0.8813116075450549 0 0.9558119313130631
v 0.9734712746463204 0 1.0402607072650205
vt 0.328125 0.3125
vt 0.359375 0.3125
vt 0.359375 0.15625
vt 0.328125 0.15625
vt 0.703125 0.34375
vt 0.734375 0.34375
vt 0.734375 0.1875
vt 0.703125 0.1875
vt 0.734375 1
vt 0.765625 1
vt 0.765625 0.84375
vt 0.734375 0.84375
vt 0.734375 0.84375
vt 0.765625 0.84375
vt 0.765625 0.6875
vt 0.734375 0.6875
vt 0.796875 0.71875
vt 0.765625 0.71875
vt 0.765625 0.75
vt 0.796875 0.75
vt 0.796875 0.71875
vt 0.765625 0.71875
vt 0.765625 0.6875
vt 0.796875 0.6875
vn -0.7372773368101241 0 -0.6755902076156604
vn 0.6755902076156604 0 -0.7372773368101241
vn 0.7372773368101241 0 0.6755902076156604
vn -0.6755902076156604 0 0.7372773368101241
vn 0 1 0
vn 0 -1 0
usemtl m_6a76b8f2-3cb9-9d22-dfc5-f6b92c046537
f 36/100/25 39/99/25 37/98/25 34/97/25
f 35/104/26 36/103/26 34/102/26 33/101/26
f 40/108/27 35/107/27 33/106/27 38/105/27
f 39/112/28 40/111/28 38/110/28 37/109/28
f 38/116/29 33/115/29 34/114/29 37/113/29
f 39/120/30 36/119/30 35/118/30 40/117/30
o foot_3_v1
v 1.0118402170476453 0.75 0.9058766521877762
v 0.9196805499463797 0.75 0.8214278762358187
v 1.0118402170476453 0.625 0.9058766521877762
v 0.9196805499463797 0.625 0.8214278762358187
v 0.8352317739944222 0.75 0.9135875433370843
v 0.9273914410956877 0.75 0.9980363192890418
v 0.8352317739944222 0.625 0.9135875433370843
v 0.9273914410956877 0.625 0.9980363192890418
vt 0.765625 0.9375
vt 0.796875 0.9375
vt 0.796875 0.90625
vt 0.765625 0.90625
vt 0.765625 0.90625
vt 0.796875 0.90625
vt 0.796875 0.875
vt 0.765625 0.875
vt 0.765625 0.875
vt 0.796875 0.875
vt 0.796875 0.84375
vt 0.765625 0.84375
vt 0.765625 0.84375
vt 0.796875 0.84375
vt 0.796875 0.8125
vt 0.765625 0.8125
vt 0.796875 0.78125
vt 0.765625 0.78125
vt 0.765625 0.8125
vt 0.796875 0.8125
vt 0.796875 0.78125
vt 0.765625 0.78125
vt 0.765625 0.75
vt 0.796875 0.75
vn -0.7372773368101241 0 -0.6755902076156604
vn 0.6755902076156604 0 -0.7372773368101241
vn 0.7372773368101241 0 0.6755902076156604
vn -0.6755902076156604 0 0.7372773368101241
vn 0 1 0
vn 0 -1 0
usemtl m_6a76b8f2-3cb9-9d22-dfc5-f6b92c046537
f 44/124/31 47/123/31 45/122/31 42/121/31
f 43/128/32 44/127/32 42/126/32 41/125/32
f 48/132/33 43/131/33 41/130/33 46/129/33
f 47/136/34 48/135/34 46/134/34 45/133/34
f 46/140/35 41/139/35 42/138/35 45/137/35
f 47/144/36 44/143/36 43/142/36 48/141/36
o foot_4_v1
v 0.11887622211703841 0.625 0.019045031189684813
v 0.02671655501577297 0.625 -0.06540374476227273
v 0.11887622211703841 0 0.019045031189684813
v 0.02671655501577297 0 -0.06540374476227273
v -0.057732220936184575 0.625 0.02675592233899271
v 0.03442744616508092 0.625 0.11120469829095037
v -0.057732220936184575 0 0.02675592233899271
v 0.03442744616508092 0 0.11120469829095037
vt 0.734375 0.6875
vt 0.765625 0.6875
vt 0.765625 0.53125
vt 0.734375 0.53125
vt 0.359375 0.265625
vt 0.390625 0.265625
vt 0.390625 0.109375
vt 0.359375 0.109375
vt 0.390625 0.265625
vt 0.421875 0.265625
vt 0.421875 0.109375
vt 0.390625 0.109375
vt 0.421875 0.265625
vt 0.453125 0.265625
vt 0.453125 0.109375
vt 0.421875 0.109375
vt 0.796875 0.65625
vt 0.765625 0.65625
vt 0.765625 0.6875
vt 0.796875 0.6875
vt 0.796875 0.65625
vt 0.765625 0.65625
vt 0.765625 0.625
vt 0.796875 0.625
vn -0.7372773368101241 0 -0.6755902076156604
vn 0.6755902076156604 0 -0.7372773368101241
vn 0.7372773368101241 0 0.6755902076156604
vn -0.6755902076156604 0 0.7372773368101241
vn 0 1 0
vn 0 -1 0
usemtl m_6a76b8f2-3cb9-9d22-dfc5-f6b92c046537
f 52/148/37 55/147/37 53/146/37 50/145/37
f 51/152/38 52/151/38 50/150/38 49/149/38
f 56/156/39 51/155/39 49/154/39 54/153/39
f 55/160/40 56/159/40 54/158/40 53/157/40
f 54/164/41 49/163/41 50/162/41 53/161/41
f 55/168/42 52/167/42 51/166/42 56/165/42
o foot_4_v2
v 0.16495605566767113 0.75 0.06126941916566364
v 0.07279638856640569 0.75 -0.023179356786293903
v 0.16495605566767113 0.625 0.06126941916566364
v 0.07279638856640569 0.625 -0.023179356786293903
v -0.011652387385551854 0.75 0.06898031031497154
v 0.08050727971571364 0.75 0.15342908626692914
v -0.011652387385551854 0.625 0.06898031031497154
v 0.08050727971571364 0.625 0.15342908626692914
vt 0.765625 0.625
vt 0.796875 0.625
vt 0.796875 0.59375
vt 0.765625 0.59375
vt 0.765625 0.59375
vt 0.796875 0.59375
vt 0.796875 0.5625
vt 0.765625 0.5625
vt 0.765625 0.5625
vt 0.796875 0.5625
vt 0.796875 0.53125
vt 0.765625 0.53125
vt 0.765625 0.25
vt 0.796875 0.25
vt 0.796875 0.21875
vt 0.765625 0.21875
vt 0.8125 0.453125
vt 0.78125 0.453125
vt 0.78125 0.484375
vt 0.8125 0.484375
vt 0.5625 0.21875
vt 0.53125 0.21875
vt 0.53125 0.1875
vt 0.5625 0.1875
vn -0.7372773368101241 0 -0.6755902076156604
vn 0.6755902076156604 0 -0.7372773368101241
vn 0.7372773368101241 0 0.6755902076156604
vn -0.6755902076156604 0 0.7372773368101241
vn 0 1 0
vn 0 -1 0
usemtl m_6a76b8f2-3cb9-9d22-dfc5-f6b92c046537
f 60/172/43 63/171/43 61/170/43 58/169/43
f 59/176/44 60/175/44 58/174/44 57/173/44
f 64/180/45 59/179/45 57/178/45 62/177/45
f 63/184/46 64/183/46 62/182/46 61/181/46
f 62/188/47 57/187/47 58/186/47 61/185/47
f 63/192/48 60/191/48 59/190/48 64/189/48
o bodu_v1
v 0.9375 0.71875 0.925
v 0.9375 0.71875 0.04999999999999999
v 0.9375 0.65625 0.925
v 0.9375 0.65625 0.04999999999999999
v 0.0625 0.71875 0.04999999999999999
v 0.0625 0.71875 0.925
v 0.0625 0.65625 0.04999999999999999
v 0.0625 0.65625 0.925
vt 0.6875 0.265625
vt 0.453125 0.265625
vt 0.453125 0.25
vt 0.6875 0.25
vt 0.734375 0.34375
vt 0.96875 0.34375
vt 0.96875 0.328125
vt 0.734375 0.328125
vt 0.734375 0.328125
vt 0.96875 0.328125
vt 0.96875 0.3125
vt 0.734375 0.3125
vt 0.734375 0.3125
vt 0.96875 0.3125
vt 0.96875 0.296875
vt 0.734375 0.296875
vt 0.609375 0.765625
vt 0.375 0.765625
vt 0.375 1
vt 0.609375 1
vt 0.609375 0.765625
vt 0.375 0.765625
vt 0.375 0.53125
vt 0.609375 0.53125
vn 0 0 -1
vn 1 0 0
vn 0 0 1
vn -1 0 0
vn 0 1 0
vn 0 -1 0
usemtl m_6a76b8f2-3cb9-9d22-dfc5-f6b92c046537
f 68/196/49 71/195/49 69/194/49 66/193/49
f 67/200/50 68/199/50 66/198/50 65/197/50
f 72/204/51 67/203/51 65/202/51 70/201/51
f 71/208/52 72/207/52 70/206/52 69/205/52
f 70/212/53 65/211/53 66/210/53 69/209/53
f 71/216/54 68/215/54 67/214/54 72/213/54
o body_v2
v 0.875 2.094375 0.8625
v 0.875 2.094375 0.11249999999999999
v 0.875 0.7193749999999999 0.8625
v 0.875 0.7193749999999999 0.11249999999999999
v 0.125 2.094375 0.11249999999999999
v 0.125 2.094375 0.8625
v 0.125 0.7193749999999999 0.11249999999999999
v 0.125 0.7193749999999999 0.8625
vt 0 1
vt 0.1875 1
vt 0.1875 0.65625
vt 0 0.65625
vt 0.1875 1
vt 0.375 1
vt 0.375 0.65625
vt 0.1875 0.65625
vt 0 0.65625
vt 0.1875 0.65625
vt 0.1875 0.3125
vt 0 0.3125
vt 0.1875 0.65625
vt 0.375 0.65625
vt 0.375 0.3125
vt 0.1875 0.3125
vt 0.5625 0.34375
vt 0.375 0.34375
vt 0.375 0.53125
vt 0.5625 0.53125
vt 0.75 0.53125
vt 0.5625 0.53125
vt 0.5625 0.34375
vt 0.75 0.34375
vn 0 0 -1
vn 1 0 0
vn 0 0 1
vn -1 0 0
vn 0 1 0
vn 0 -1 0
usemtl m_6a76b8f2-3cb9-9d22-dfc5-f6b92c046537
f 76/220/55 79/219/55 77/218/55 74/217/55
f 75/224/56 76/223/56 74/222/56 73/221/56
f 80/228/57 75/227/57 73/226/57 78/225/57
f 79/232/58 80/231/58 78/230/58 77/229/58
f 78/236/59 73/235/59 74/234/59 77/233/59
f 79/240/60 76/239/60 75/238/60 80/237/60
o head_v1
v 0.75 2.4075 0.7375
v 0.75 2.4075 0.2375
v 0.75 2.095 0.7375
v 0.75 2.095 0.2375
v 0.25 2.4075 0.2375
v 0.25 2.4075 0.7375
v 0.25 2.095 0.2375
v 0.25 2.095 0.7375
vt 0.609375 0.75
vt 0.734375 0.75
vt 0.734375 0.671875
vt 0.609375 0.671875
vt 0.609375 0.671875
vt 0.734375 0.671875
vt 0.734375 0.59375
vt 0.609375 0.59375
vt 0.375 0.34375
vt 0.5 0.34375
vt 0.5 0.265625
vt 0.375 0.265625
vt 0.5 0.34375
vt 0.625 0.34375
vt 0.625 0.265625
vt 0.5 0.265625
vt 0.734375 0.875
vt 0.609375 0.875
vt 0.609375 1
vt 0.734375 1
vt 0.734375 0.875
vt 0.609375 0.875
vt 0.609375 0.75
vt 0.734375 0.75
vn 0 0 -1
vn 1 0 0
vn 0 0 1
vn -1 0 0
vn 0 1 0
vn 0 -1 0
usemtl m_6a76b8f2-3cb9-9d22-dfc5-f6b92c046537
f 84/244/61 87/243/61 85/242/61 82/241/61
f 83/248/62 84/247/62 82/246/62 81/245/62
f 88/252/63 83/251/63 81/250/63 86/249/63
f 87/256/64 88/255/64 86/254/64 85/253/64
f 86/260/65 81/259/65 82/258/65 85/257/65
f 87/264/66 84/263/66 83/262/66 88/261/66
o head_v2
v 0.65625 2.59375 0.64375
v 0.65625 2.59375 0.33125000000000004
v 0.65625 2.40625 0.64375
v 0.65625 2.40625 0.33125000000000004
v 0.34375 2.59375 0.33125000000000004
v 0.34375 2.59375 0.64375
v 0.34375 2.40625 0.33125000000000004
v 0.34375 2.40625 0.64375
vt 0.609375 0.59375
vt 0.6875 0.59375
vt 0.6875 0.546875
vt 0.609375 0.546875
vt 0.734375 0.296875
vt 0.8125 0.296875
vt 0.8125 0.25
vt 0.734375 0.25
vt 0.453125 0.25
vt 0.53125 0.25
vt 0.53125 0.203125
vt 0.453125 0.203125
vt 0.75 0.53125
vt 0.828125 0.53125
vt 0.828125 0.484375
vt 0.75 0.484375
vt 0.703125 0.265625
vt 0.625 0.265625
vt 0.625 0.34375
vt 0.703125 0.34375
vt 0.078125 0.3125
vt 0 0.3125
vt 0 0.234375
vt 0.078125 0.234375
vn 0 0 -1
vn 1 0 0
vn 0 0 1
vn -1 0 0
vn 0 1 0
vn 0 -1 0
usemtl m_6a76b8f2-3cb9-9d22-dfc5-f6b92c046537
f 92/268/67 95/267/67 93/266/67 90/265/67
f 91/272/68 92/271/68 90/270/68 89/269/68
f 96/276/69 91/275/69 89/274/69 94/273/69
f 95/280/70 96/279/70 94/278/70 93/277/70
f 94/284/71 89/283/71 90/282/71 93/281/71
f 95/288/72 92/287/72 91/286/72 96/285/72
o head_v3
v 0.53125 2.84375 0.51875
v 0.53125 2.84375 0.45625000000000004
v 0.53125 2.59375 0.51875
v 0.53125 2.59375 0.45625000000000004
v 0.46875 2.84375 0.45625000000000004
v 0.46875 2.84375 0.51875
v 0.46875 2.59375 0.45625000000000004
v 0.46875 2.59375 0.51875
vt 0.71875 0.59375
vt 0.734375 0.59375
vt 0.734375 0.53125
vt 0.71875 0.53125
vt 0.6875 0.265625
vt 0.703125 0.265625
vt 0.703125 0.203125
vt 0.6875 0.203125
vt 0.0625 0.234375
vt 0.078125 0.234375
vt 0.078125 0.171875
vt 0.0625 0.171875
vt 0.78125 0.453125
vt 0.796875 0.453125
vt 0.796875 0.390625
vt 0.78125 0.390625
vt 0.625 0.53125
vt 0.609375 0.53125
vt 0.609375 0.546875
vt 0.625 0.546875
vt 0.640625 0.546875
vt 0.625 0.546875
vt 0.625 0.53125
vt 0.640625 0.53125
vn 0 0 -1
vn 1 0 0
vn 0 0 1
vn -1 0 0
vn 0 1 0
vn 0 -1 0
usemtl m_6a76b8f2-3cb9-9d22-dfc5-f6b92c046537
f 100/292/73 103/291/73 101/290/73 98/289/73
f 99/296/74 100/295/74 98/294/74 97/293/74
f 104/300/75 99/299/75 97/298/75 102/297/75
f 103/304/76 104/303/76 102/302/76 101/301/76
f 102/308/77 97/307/77 98/306/77 101/305/77
f 103/312/78 100/311/78 99/310/78 104/309/78